<svg width="32" height="32" viewBox="0 0 32 32" fill="none" xmlns="http://www.w3.org/2000/svg">
<path d="M11.3337 25.3327H10.667C5.33366 25.3327 2.66699 23.9993 2.66699 17.3327V10.666C2.66699 5.33268 5.33366 2.66602 10.667 2.66602H21.3337C26.667 2.66602 29.3337 5.33268 29.3337 10.666V17.3327C29.3337 22.666 26.667 25.3327 21.3337 25.3327H20.667C20.2537 25.3327 19.8537 25.5327 19.6003 25.866L17.6003 28.5327C16.7203 29.706 15.2803 29.706 14.4003 28.5327L12.4003 25.866C12.187 25.5727 11.6937 25.3327 11.3337 25.3327Z" stroke="#292D32" stroke-width="2" stroke-miterlimit="10" stroke-linecap="round" stroke-linejoin="round"/>
<path d="M9.33301 10.666H22.6663" stroke="#292D32" stroke-width="2" stroke-linecap="round" stroke-linejoin="round"/>
<path d="M9.33301 17.334H17.333" stroke="#292D32" stroke-width="2" stroke-linecap="round" stroke-linejoin="round"/>
</svg>
