<svg width="32" height="32" viewBox="0 0 32 32" fill="none" xmlns="http://www.w3.org/2000/svg">
<path d="M22.627 16.334V22.334C22.627 27.334 20.627 29.334 15.627 29.334H9.62695C4.62695 29.334 2.62695 27.334 2.62695 22.334V16.334C2.62695 11.334 4.62695 9.33398 9.62695 9.33398H15.627C20.627 9.33398 22.627 11.334 22.627 16.334Z" stroke="#292D32" stroke-width="2" stroke-linecap="round" stroke-linejoin="round"/>
<path d="M29.2937 9.99935C29.2937 13.826 26.3737 16.9593 22.627 17.2927V16.3327C22.627 11.3327 20.627 9.33268 15.627 9.33268H14.667C15.0003 5.58602 18.1337 2.66602 21.9603 2.66602C25.6803 2.66602 28.747 5.42602 29.2137 9.02602C29.267 9.33268 29.2937 9.66602 29.2937 9.99935Z" stroke="#292D32" stroke-width="2" stroke-linecap="round" stroke-linejoin="round"/>
</svg>
