<svg width="20" height="20" viewBox="0 0 20 20" fill="none" xmlns="http://www.w3.org/2000/svg">
<path d="M13.492 1.66602H6.50866C3.47533 1.66602 1.66699 3.47435 1.66699 6.50768V13.4827C1.66699 16.5243 3.47533 18.3327 6.50866 18.3327H13.4837C16.517 18.3327 18.3253 16.5243 18.3253 13.491V6.50768C18.3337 3.47435 16.5253 1.66602 13.492 1.66602Z" fill="#BBC3C8"/>
<path d="M13.3337 9.37435H10.6253V6.66602C10.6253 6.32435 10.342 6.04102 10.0003 6.04102C9.65866 6.04102 9.37533 6.32435 9.37533 6.66602V9.37435H6.66699C6.32533 9.37435 6.04199 9.65768 6.04199 9.99935C6.04199 10.341 6.32533 10.6243 6.66699 10.6243H9.37533V13.3327C9.37533 13.6743 9.65866 13.9577 10.0003 13.9577C10.342 13.9577 10.6253 13.6743 10.6253 13.3327V10.6243H13.3337C13.6753 10.6243 13.9587 10.341 13.9587 9.99935C13.9587 9.65768 13.6753 9.37435 13.3337 9.37435Z" fill="#556875"/>
</svg>
